# xmcd
#
# Track frame offsets:
#	150
#	22779
#	38319
#	60087
#	78076
#	91904
#	114063
#	132604
#	163254
#	184328
#	200007
#	240124
#	259474
#	280022
#	292646
#
# Disc length: 4280 seconds
# Revision: 0
# Processed by: cddbd v1.5.2PL0 Copyright (c) Steve Scherf et al.
# Submitted via: dBpowerAMP V12.0
#
DISCID=b310b60f
DTITLE=Various Artist - The Blues Magazine: The Best Of 2012
DYEAR=2012
DGENRE=Blues
TTITLE0=Ian Siegal and The Mississippi Mudbloods - I Am The Train
TTITLE1=Rival Sons - Wild Animal
TTITLE2=Joe Bonamassa - Driving Towards The Daylight
TTITLE3=Big Boy Bloater - I Can't Forget About You
TTITLE4=Chuck Leavell - No Specail Rider
TTITLE5=Simon McBride - No Room To Breathe
TTITLE6=Huey and The New Yorkers - New York Blues
TTITLE7=Stephen Dale Petit - 3 Gunslingers
TTITLE8=The Nimmo Brothers - Waiting For My Heart To Fail
TTITLE9=Ruthie Foster - Aim For The Heart
TTITLE10=Robert Cray - I'm Done Crying
TTITLE11=Bonnie Raitt - Used To Rule The World
TTITLE12=Otis Grand - Bad News Blues On TV
TTITLE13=Hans Theessink and Terry Evans - Build Myself A Home
TTITLE14=Walter Trout - Blues For The Modern Daze
EXTD=
EXTT0=
EXTT1=
EXTT2=
EXTT3=
EXTT4=
EXTT5=
EXTT6=
EXTT7=
EXTT8=
EXTT9=
EXTT10=
EXTT11=
EXTT12=
EXTT13=
EXTT14=
PLAYORDER=
